<svg width="400" height="400" viewBox="0 0 400 400" fill="none" xmlns="http://www.w3.org/2000/svg">
<rect width="400" height="400" fill="transparent"/>
<path d="M94 180.5C94 180.5 97.5 214.5 136 214.5C174.5 214.5 179.5 180.5 179.5 180.5" stroke="black" stroke-width="12" stroke-linecap="round"/>
<path d="M223 180C223 180 226.5 214 265 214C303.5 214 308.5 180 308.5 180" stroke="black" stroke-width="12" stroke-linecap="round"/>
<path d="M159 253C159 253 173 266 200.5 266C228 266 240.5 253 240.5 253" stroke="black" stroke-width="24" stroke-linecap="round"/>
<path d="M64.7102 140.008L66.5284 139.521L67.0156 141.339L65.1973 141.826L64.7102 140.008ZM66.5284 139.521L68.3466 139.033L68.8338 140.852L67.0156 141.339L66.5284 139.521ZM68.3466 139.033L70.1648 138.546L70.652 140.364L68.8338 140.852L68.3466 139.033ZM70.1648 138.546L71.983 138.059L72.4702 139.877L70.652 140.364L70.1648 138.546ZM71.983 138.059L73.8012 137.572L74.2884 139.39L72.4702 139.877L71.983 138.059ZM73.8012 137.572L75.6194 137.085L76.1066 138.903L74.2884 139.39L73.8012 137.572ZM75.6194 137.085L77.4376 136.597L77.9248 138.416L76.1066 138.903L75.6194 137.085ZM77.4376 136.597L79.2559 136.11L79.743 137.928L77.9248 138.416L77.4376 136.597ZM79.2559 136.11L81.0741 135.623L81.5613 137.441L79.743 137.928L79.2559 136.11ZM81.0741 135.623L82.8923 135.136L83.3795 136.954L81.5613 137.441L81.0741 135.623ZM82.8923 135.136L84.7105 134.649L85.1977 136.467L83.3795 136.954L82.8923 135.136ZM83.3795 136.954L85.1977 136.467L85.6849 138.285L83.8667 138.772L83.3795 136.954ZM84.7105 134.649L86.5287 134.161L87.0159 135.98L85.1977 136.467L84.7105 134.649ZM85.1977 136.467L87.0159 135.98L87.5031 137.798L85.6849 138.285L85.1977 136.467ZM85.6849 138.285L87.5031 137.798L87.9903 139.616L86.1721 140.103L85.6849 138.285ZM86.1721 140.103L87.9903 139.616L88.4775 141.434L86.6593 141.921L86.1721 140.103ZM84.3539 140.59L86.1721 140.103L86.6593 141.921L84.841 142.409L84.3539 140.59ZM82.5356 141.078L84.3539 140.59L84.841 142.409L83.0228 142.896L82.5356 141.078ZM80.7174 141.565L82.5356 141.078L83.0228 142.896L81.2046 143.383L80.7174 141.565ZM78.8992 142.052L80.7174 141.565L81.2046 143.383L79.3864 143.87L78.8992 142.052ZM77.081 142.539L78.8992 142.052L79.3864 143.87L77.5682 144.357L77.081 142.539ZM75.2628 143.026L77.081 142.539L77.5682 144.357L75.75 144.845L75.2628 143.026ZM73.4446 143.514L75.2628 143.026L75.75 144.845L73.9318 145.332L73.4446 143.514ZM71.6264 144.001L73.4446 143.514L73.9318 145.332L72.1135 145.819L71.6264 144.001ZM69.8081 144.488L71.6264 144.001L72.1135 145.819L70.2953 146.306L69.8081 144.488ZM67.9899 144.975L69.8081 144.488L70.2953 146.306L68.4771 146.793L67.9899 144.975ZM66.1717 145.462L67.9899 144.975L68.4771 146.793L66.6589 147.281L66.1717 145.462ZM65.6845 143.644L67.5027 143.157L67.9899 144.975L66.1717 145.462L65.6845 143.644ZM65.1973 141.826L67.0156 141.339L67.5027 143.157L65.6845 143.644L65.1973 141.826ZM67.0156 141.339L68.8338 140.852L69.321 142.67L67.5027 143.157L67.0156 141.339ZM68.8338 140.852L70.652 140.364L71.1392 142.183L69.321 142.67L68.8338 140.852ZM70.652 140.364L72.4702 139.877L72.9574 141.695L71.1392 142.183L70.652 140.364ZM72.4702 139.877L74.2884 139.39L74.7756 141.208L72.9574 141.695L72.4702 139.877ZM74.2884 139.39L76.1066 138.903L76.5938 140.721L74.7756 141.208L74.2884 139.39ZM76.1066 138.903L77.9248 138.416L78.412 140.234L76.5938 140.721L76.1066 138.903ZM77.9248 138.416L79.743 137.928L80.2302 139.747L78.412 140.234L77.9248 138.416ZM80.2302 139.747L82.0484 139.259L82.5356 141.078L80.7174 141.565L80.2302 139.747ZM82.0484 139.259L83.8667 138.772L84.3539 140.59L82.5356 141.078L82.0484 139.259ZM83.8667 138.772L85.6849 138.285L86.1721 140.103L84.3539 140.59L83.8667 138.772ZM81.5613 137.441L83.3795 136.954L83.8667 138.772L82.0484 139.259L81.5613 137.441ZM79.743 137.928L81.5613 137.441L82.0484 139.259L80.2302 139.747L79.743 137.928ZM76.5938 140.721L78.412 140.234L78.8992 142.052L77.081 142.539L76.5938 140.721ZM74.7756 141.208L76.5938 140.721L77.081 142.539L75.2628 143.026L74.7756 141.208ZM72.9574 141.695L74.7756 141.208L75.2628 143.026L73.4446 143.514L72.9574 141.695ZM71.1392 142.183L72.9574 141.695L73.4446 143.514L71.6264 144.001L71.1392 142.183ZM69.321 142.67L71.1392 142.183L71.6264 144.001L69.8081 144.488L69.321 142.67ZM67.5027 143.157L69.321 142.67L69.8081 144.488L67.9899 144.975L67.5027 143.157ZM78.412 140.234L80.2302 139.747L80.7174 141.565L78.8992 142.052L78.412 140.234ZM84.841 142.409L86.6593 141.921L87.1464 143.74L85.3282 144.227L84.841 142.409ZM83.0228 142.896L84.841 142.409L85.3282 144.227L83.51 144.714L83.0228 142.896ZM81.2046 143.383L83.0228 142.896L83.51 144.714L81.6918 145.201L81.2046 143.383ZM79.3864 143.87L81.2046 143.383L81.6918 145.201L79.8736 145.688L79.3864 143.87ZM79.8736 145.688L81.6918 145.201L82.179 147.019L80.3608 147.507L79.8736 145.688ZM78.0554 146.176L79.8736 145.688L80.3608 147.507L78.5426 147.994L78.0554 146.176ZM81.6918 145.201L83.51 144.714L83.9972 146.532L82.179 147.019L81.6918 145.201ZM83.51 144.714L85.3282 144.227L85.8154 146.045L83.9972 146.532L83.51 144.714ZM82.179 147.019L83.9972 146.532L84.4844 148.35L82.6662 148.838L82.179 147.019ZM80.3608 147.507L82.179 147.019L82.6662 148.838L80.848 149.325L80.3608 147.507ZM78.5426 147.994L80.3608 147.507L80.848 149.325L79.0298 149.812L78.5426 147.994ZM76.7244 148.481L78.5426 147.994L79.0298 149.812L77.2115 150.299L76.7244 148.481ZM75.3933 150.786L77.2115 150.299L77.6987 152.117L75.8805 152.605L75.3933 150.786ZM77.2115 150.299L79.0298 149.812L79.5169 151.63L77.6987 152.117L77.2115 150.299ZM79.0298 149.812L80.848 149.325L81.3352 151.143L79.5169 151.63L79.0298 149.812ZM80.848 149.325L82.6662 148.838L83.1534 150.656L81.3352 151.143L80.848 149.325ZM71.4003 157.703L73.2185 157.215L73.7057 159.034L71.8874 159.521L71.4003 157.703ZM73.2185 157.215L75.0367 156.728L75.5239 158.546L73.7057 159.034L73.2185 157.215ZM75.0367 156.728L76.8549 156.241L77.3421 158.059L75.5239 158.546L75.0367 156.728ZM76.8549 156.241L78.6731 155.754L79.1603 157.572L77.3421 158.059L76.8549 156.241ZM76.3677 154.423L78.1859 153.936L78.6731 155.754L76.8549 156.241L76.3677 154.423ZM78.1859 153.936L80.0041 153.448L80.4913 155.267L78.6731 155.754L78.1859 153.936ZM77.6987 152.117L79.5169 151.63L80.0041 153.448L78.1859 153.936L77.6987 152.117ZM79.5169 151.63L81.3352 151.143L81.8223 152.961L80.0041 153.448L79.5169 151.63ZM75.8805 152.605L77.6987 152.117L78.1859 153.936L76.3677 154.423L75.8805 152.605ZM74.0623 153.092L75.8805 152.605L76.3677 154.423L74.5495 154.91L74.0623 153.092ZM74.5495 154.91L76.3677 154.423L76.8549 156.241L75.0367 156.728L74.5495 154.91ZM72.7313 155.397L74.5495 154.91L75.0367 156.728L73.2185 157.215L72.7313 155.397ZM70.0692 160.008L71.8874 159.521L72.3746 161.339L70.5564 161.826L70.0692 160.008ZM71.8874 159.521L73.7057 159.034L74.1928 160.852L72.3746 161.339L71.8874 159.521ZM73.7057 159.034L75.5239 158.546L76.0111 160.365L74.1928 160.852L73.7057 159.034ZM75.5239 158.546L77.3421 158.059L77.8293 159.877L76.0111 160.365L75.5239 158.546ZM77.3421 158.059L79.1603 157.572L79.6475 159.39L77.8293 159.877L77.3421 158.059ZM79.1603 157.572L80.9785 157.085L81.4657 158.903L79.6475 159.39L79.1603 157.572ZM80.9785 157.085L82.7967 156.598L83.2839 158.416L81.4657 158.903L80.9785 157.085ZM82.7967 156.598L84.6149 156.111L85.1021 157.929L83.2839 158.416L82.7967 156.598ZM84.6149 156.111L86.4331 155.623L86.9203 157.442L85.1021 157.929L84.6149 156.111ZM86.4331 155.623L88.2514 155.136L88.7385 156.954L86.9203 157.442L86.4331 155.623ZM88.2514 155.136L90.0696 154.649L90.5568 156.467L88.7385 156.954L88.2514 155.136ZM90.0696 154.649L91.8878 154.162L92.375 155.98L90.5568 156.467L90.0696 154.649ZM90.5568 156.467L92.375 155.98L92.8622 157.798L91.044 158.285L90.5568 156.467ZM91.044 158.285L92.8622 157.798L93.3494 159.616L91.5311 160.104L91.044 158.285ZM91.5311 160.104L93.3494 159.616L93.8365 161.435L92.0183 161.922L91.5311 160.104ZM89.7129 160.591L91.5311 160.104L92.0183 161.922L90.2001 162.409L89.7129 160.591ZM87.8947 161.078L89.7129 160.591L90.2001 162.409L88.3819 162.896L87.8947 161.078ZM86.0765 161.565L87.8947 161.078L88.3819 162.896L86.5637 163.383L86.0765 161.565ZM84.2583 162.052L86.0765 161.565L86.5637 163.383L84.7455 163.871L84.2583 162.052ZM82.4401 162.54L84.2583 162.052L84.7455 163.871L82.9273 164.358L82.4401 162.54ZM80.6219 163.027L82.4401 162.54L82.9273 164.358L81.1091 164.845L80.6219 163.027ZM78.8036 163.514L80.6219 163.027L81.1091 164.845L79.2908 165.332L78.8036 163.514ZM76.9854 164.001L78.8036 163.514L79.2908 165.332L77.4726 165.819L76.9854 164.001ZM75.1672 164.488L76.9854 164.001L77.4726 165.819L75.6544 166.307L75.1672 164.488ZM73.349 164.975L75.1672 164.488L75.6544 166.307L73.8362 166.794L73.349 164.975ZM72.8618 163.157L74.68 162.67L75.1672 164.488L73.349 164.975L72.8618 163.157ZM71.0436 163.644L72.8618 163.157L73.349 164.975L71.5308 165.463L71.0436 163.644ZM70.5564 161.826L72.3746 161.339L72.8618 163.157L71.0436 163.644L70.5564 161.826ZM71.5308 165.463L73.349 164.975L73.8362 166.794L72.018 167.281L71.5308 165.463ZM74.68 162.67L76.4982 162.183L76.9854 164.001L75.1672 164.488L74.68 162.67ZM76.4982 162.183L78.3165 161.696L78.8036 163.514L76.9854 164.001L76.4982 162.183ZM78.3165 161.696L80.1347 161.209L80.6219 163.027L78.8036 163.514L78.3165 161.696ZM80.1347 161.209L81.9529 160.721L82.4401 162.54L80.6219 163.027L80.1347 161.209ZM81.9529 160.721L83.7711 160.234L84.2583 162.052L82.4401 162.54L81.9529 160.721ZM83.7711 160.234L85.5893 159.747L86.0765 161.565L84.2583 162.052L83.7711 160.234ZM85.5893 159.747L87.4075 159.26L87.8947 161.078L86.0765 161.565L85.5893 159.747ZM87.4075 159.26L89.2257 158.773L89.7129 160.591L87.8947 161.078L87.4075 159.26ZM89.2257 158.773L91.044 158.285L91.5311 160.104L89.7129 160.591L89.2257 158.773ZM88.7385 156.954L90.5568 156.467L91.044 158.285L89.2257 158.773L88.7385 156.954ZM86.9203 157.442L88.7385 156.954L89.2257 158.773L87.4075 159.26L86.9203 157.442ZM83.2839 158.416L85.1021 157.929L85.5893 159.747L83.7711 160.234L83.2839 158.416ZM81.4657 158.903L83.2839 158.416L83.7711 160.234L81.9529 160.721L81.4657 158.903ZM79.6475 159.39L81.4657 158.903L81.9529 160.721L80.1347 161.209L79.6475 159.39ZM77.8293 159.877L79.6475 159.39L80.1347 161.209L78.3165 161.696L77.8293 159.877ZM76.0111 160.365L77.8293 159.877L78.3165 161.696L76.4982 162.183L76.0111 160.365ZM74.1928 160.852L76.0111 160.365L76.4982 162.183L74.68 162.67L74.1928 160.852ZM72.3746 161.339L74.1928 160.852L74.68 162.67L72.8618 163.157L72.3746 161.339ZM85.1021 157.929L86.9203 157.442L87.4075 159.26L85.5893 159.747L85.1021 157.929Z" fill="black"/>
<path d="M49.7574 87.2652L52.5193 86.6781L53.1063 89.44L50.3445 90.027L49.7574 87.2652ZM52.5193 86.6781L55.2811 86.0911L55.8681 88.8529L53.1063 89.44L52.5193 86.6781ZM55.2811 86.0911L58.0429 85.504L58.63 88.2659L55.8681 88.8529L55.2811 86.0911ZM58.0429 85.504L60.8048 84.917L61.3918 87.6788L58.63 88.2659L58.0429 85.504ZM60.8048 84.917L63.5666 84.33L64.1536 87.0918L61.3918 87.6788L60.8048 84.917ZM63.5666 84.33L66.3284 83.7429L66.9155 86.5047L64.1536 87.0918L63.5666 84.33ZM66.3284 83.7429L69.0902 83.1559L69.6773 85.9177L66.9155 86.5047L66.3284 83.7429ZM69.0902 83.1559L71.8521 82.5688L72.4391 85.3306L69.6773 85.9177L69.0902 83.1559ZM71.8521 82.5688L74.6139 81.9818L75.2009 84.7436L72.4391 85.3306L71.8521 82.5688ZM74.6139 81.9818L77.3757 81.3947L77.9628 84.1566L75.2009 84.7436L74.6139 81.9818ZM77.3757 81.3947L80.1376 80.8077L80.7246 83.5695L77.9628 84.1566L77.3757 81.3947ZM77.9628 84.1566L80.7246 83.5695L81.3116 86.3313L78.5498 86.9184L77.9628 84.1566ZM80.1376 80.8077L82.8994 80.2206L83.4864 82.9825L80.7246 83.5695L80.1376 80.8077ZM80.7246 83.5695L83.4864 82.9825L84.0735 85.7443L81.3116 86.3313L80.7246 83.5695ZM81.3116 86.3313L84.0735 85.7443L84.6605 88.5061L81.8987 89.0932L81.3116 86.3313ZM81.8987 89.0932L84.6605 88.5061L85.2476 91.268L82.4857 91.855L81.8987 89.0932ZM79.1369 89.6802L81.8987 89.0932L82.4857 91.855L79.7239 92.442L79.1369 89.6802ZM76.375 90.2673L79.1369 89.6802L79.7239 92.442L76.9621 93.0291L76.375 90.2673ZM73.6132 90.8543L76.375 90.2673L76.9621 93.0291L74.2003 93.6161L73.6132 90.8543ZM70.8514 91.4414L73.6132 90.8543L74.2003 93.6161L71.4384 94.2032L70.8514 91.4414ZM68.0896 92.0284L70.8514 91.4414L71.4384 94.2032L68.6766 94.7902L68.0896 92.0284ZM65.3277 92.6154L68.0896 92.0284L68.6766 94.7902L65.9148 95.3773L65.3277 92.6154ZM62.5659 93.2025L65.3277 92.6154L65.9148 95.3773L63.1529 95.9643L62.5659 93.2025ZM59.8041 93.7895L62.5659 93.2025L63.1529 95.9643L60.3911 96.5514L59.8041 93.7895ZM57.0422 94.3766L59.8041 93.7895L60.3911 96.5514L57.6293 97.1384L57.0422 94.3766ZM54.2804 94.9636L57.0422 94.3766L57.6293 97.1384L54.8675 97.7254L54.2804 94.9636ZM51.5186 95.5507L54.2804 94.9636L54.8675 97.7254L52.1056 98.3125L51.5186 95.5507ZM50.9315 92.7888L53.6934 92.2018L54.2804 94.9636L51.5186 95.5507L50.9315 92.7888ZM50.3445 90.027L53.1063 89.44L53.6934 92.2018L50.9315 92.7888L50.3445 90.027ZM53.1063 89.44L55.8681 88.8529L56.4552 91.6147L53.6934 92.2018L53.1063 89.44ZM55.8681 88.8529L58.63 88.2659L59.217 91.0277L56.4552 91.6147L55.8681 88.8529ZM58.63 88.2659L61.3918 87.6788L61.9788 90.4407L59.217 91.0277L58.63 88.2659ZM61.3918 87.6788L64.1536 87.0918L64.7407 89.8536L61.9788 90.4407L61.3918 87.6788ZM64.1536 87.0918L66.9155 86.5047L67.5025 89.2666L64.7407 89.8536L64.1536 87.0918ZM66.9155 86.5047L69.6773 85.9177L70.2643 88.6795L67.5025 89.2666L66.9155 86.5047ZM69.6773 85.9177L72.4391 85.3306L73.0262 88.0925L70.2643 88.6795L69.6773 85.9177ZM73.0262 88.0925L75.788 87.5054L76.375 90.2673L73.6132 90.8543L73.0262 88.0925ZM75.788 87.5054L78.5498 86.9184L79.1369 89.6802L76.375 90.2673L75.788 87.5054ZM78.5498 86.9184L81.3116 86.3313L81.8987 89.0932L79.1369 89.6802L78.5498 86.9184ZM75.2009 84.7436L77.9628 84.1566L78.5498 86.9184L75.788 87.5054L75.2009 84.7436ZM72.4391 85.3306L75.2009 84.7436L75.788 87.5054L73.0262 88.0925L72.4391 85.3306ZM67.5025 89.2666L70.2643 88.6795L70.8514 91.4414L68.0896 92.0284L67.5025 89.2666ZM64.7407 89.8536L67.5025 89.2666L68.0896 92.0284L65.3277 92.6154L64.7407 89.8536ZM61.9788 90.4407L64.7407 89.8536L65.3277 92.6154L62.5659 93.2025L61.9788 90.4407ZM59.217 91.0277L61.9788 90.4407L62.5659 93.2025L59.8041 93.7895L59.217 91.0277ZM56.4552 91.6147L59.217 91.0277L59.8041 93.7895L57.0422 94.3766L56.4552 91.6147ZM53.6934 92.2018L56.4552 91.6147L57.0422 94.3766L54.2804 94.9636L53.6934 92.2018ZM70.2643 88.6795L73.0262 88.0925L73.6132 90.8543L70.8514 91.4414L70.2643 88.6795ZM79.7239 92.442L82.4857 91.855L83.0728 94.6168L80.311 95.2039L79.7239 92.442ZM76.9621 93.0291L79.7239 92.442L80.311 95.2039L77.5491 95.7909L76.9621 93.0291ZM74.2003 93.6161L76.9621 93.0291L77.5491 95.7909L74.7873 96.378L74.2003 93.6161ZM71.4384 94.2032L74.2003 93.6161L74.7873 96.378L72.0255 96.965L71.4384 94.2032ZM72.0255 96.965L74.7873 96.378L75.3743 99.1398L72.6125 99.7268L72.0255 96.965ZM69.2636 97.5521L72.0255 96.965L72.6125 99.7268L69.8507 100.314L69.2636 97.5521ZM74.7873 96.378L77.5491 95.7909L78.1362 98.5527L75.3743 99.1398L74.7873 96.378ZM77.5491 95.7909L80.311 95.2039L80.898 97.9657L78.1362 98.5527L77.5491 95.7909ZM75.3743 99.1398L78.1362 98.5527L78.7232 101.315L75.9614 101.902L75.3743 99.1398ZM72.6125 99.7268L75.3743 99.1398L75.9614 101.902L73.1996 102.489L72.6125 99.7268ZM69.8507 100.314L72.6125 99.7268L73.1996 102.489L70.4377 103.076L69.8507 100.314ZM67.0889 100.901L69.8507 100.314L70.4377 103.076L67.6759 103.663L67.0889 100.901ZM64.9141 104.25L67.6759 103.663L68.2629 106.425L65.5011 107.012L64.9141 104.25ZM67.6759 103.663L70.4377 103.076L71.0248 105.838L68.2629 106.425L67.6759 103.663ZM70.4377 103.076L73.1996 102.489L73.7866 105.25L71.0248 105.838L70.4377 103.076ZM73.1996 102.489L75.9614 101.902L76.5484 104.663L73.7866 105.25L73.1996 102.489ZM58.3897 114.296L61.1515 113.709L61.7386 116.471L58.9768 117.058L58.3897 114.296ZM61.1515 113.709L63.9134 113.122L64.5004 115.884L61.7386 116.471L61.1515 113.709ZM63.9134 113.122L66.6752 112.535L67.2623 115.297L64.5004 115.884L63.9134 113.122ZM66.6752 112.535L69.437 111.948L70.0241 114.71L67.2623 115.297L66.6752 112.535ZM66.0882 109.773L68.85 109.186L69.437 111.948L66.6752 112.535L66.0882 109.773ZM68.85 109.186L71.6118 108.599L72.1989 111.361L69.437 111.948L68.85 109.186ZM68.2629 106.425L71.0248 105.838L71.6118 108.599L68.85 109.186L68.2629 106.425ZM71.0248 105.838L73.7866 105.25L74.3736 108.012L71.6118 108.599L71.0248 105.838ZM65.5011 107.012L68.2629 106.425L68.85 109.186L66.0882 109.773L65.5011 107.012ZM62.7393 107.599L65.5011 107.012L66.0882 109.773L63.3263 110.36L62.7393 107.599ZM63.3263 110.36L66.0882 109.773L66.6752 112.535L63.9134 113.122L63.3263 110.36ZM60.5645 110.948L63.3263 110.36L63.9134 113.122L61.1515 113.709L60.5645 110.948ZM56.2149 117.645L58.9768 117.058L59.5638 119.82L56.802 120.407L56.2149 117.645ZM58.9768 117.058L61.7386 116.471L62.3256 119.233L59.5638 119.82L58.9768 117.058ZM61.7386 116.471L64.5004 115.884L65.0875 118.646L62.3256 119.233L61.7386 116.471ZM64.5004 115.884L67.2623 115.297L67.8493 118.059L65.0875 118.646L64.5004 115.884ZM67.2623 115.297L70.0241 114.71L70.6111 117.472L67.8493 118.059L67.2623 115.297ZM70.0241 114.71L72.7859 114.123L73.373 116.885L70.6111 117.472L70.0241 114.71ZM72.7859 114.123L75.5477 113.536L76.1348 116.298L73.373 116.885L72.7859 114.123ZM75.5477 113.536L78.3096 112.949L78.8966 115.711L76.1348 116.298L75.5477 113.536ZM78.3096 112.949L81.0714 112.362L81.6584 115.124L78.8966 115.711L78.3096 112.949ZM81.0714 112.362L83.8332 111.775L84.4203 114.537L81.6584 115.124L81.0714 112.362ZM83.8332 111.775L86.5951 111.188L87.1821 113.95L84.4203 114.537L83.8332 111.775ZM86.5951 111.188L89.3569 110.601L89.9439 113.363L87.1821 113.95L86.5951 111.188ZM87.1821 113.95L89.9439 113.363L90.531 116.124L87.7691 116.711L87.1821 113.95ZM87.7691 116.711L90.531 116.124L91.118 118.886L88.3562 119.473L87.7691 116.711ZM88.3562 119.473L91.118 118.886L91.7051 121.648L88.9432 122.235L88.3562 119.473ZM85.5944 120.06L88.3562 119.473L88.9432 122.235L86.1814 122.822L85.5944 120.06ZM82.8325 120.647L85.5944 120.06L86.1814 122.822L83.4196 123.409L82.8325 120.647ZM80.0707 121.234L82.8325 120.647L83.4196 123.409L80.6577 123.996L80.0707 121.234ZM77.3089 121.821L80.0707 121.234L80.6577 123.996L77.8959 124.583L77.3089 121.821ZM74.547 122.409L77.3089 121.821L77.8959 124.583L75.1341 125.17L74.547 122.409ZM71.7852 122.996L74.547 122.409L75.1341 125.17L72.3723 125.757L71.7852 122.996ZM69.0234 123.583L71.7852 122.996L72.3723 125.757L69.6104 126.344L69.0234 123.583ZM66.2616 124.17L69.0234 123.583L69.6104 126.344L66.8486 126.931L66.2616 124.17ZM63.4997 124.757L66.2616 124.17L66.8486 126.931L64.0868 127.519L63.4997 124.757ZM60.7379 125.344L63.4997 124.757L64.0868 127.519L61.3249 128.106L60.7379 125.344ZM60.1509 122.582L62.9127 121.995L63.4997 124.757L60.7379 125.344L60.1509 122.582ZM57.389 123.169L60.1509 122.582L60.7379 125.344L57.9761 125.931L57.389 123.169ZM56.802 120.407L59.5638 119.82L60.1509 122.582L57.389 123.169L56.802 120.407ZM57.9761 125.931L60.7379 125.344L61.3249 128.106L58.5631 128.693L57.9761 125.931ZM62.9127 121.995L65.6745 121.408L66.2616 124.17L63.4997 124.757L62.9127 121.995ZM65.6745 121.408L68.4363 120.821L69.0234 123.583L66.2616 124.17L65.6745 121.408ZM68.4363 120.821L71.1982 120.234L71.7852 122.996L69.0234 123.583L68.4363 120.821ZM71.1982 120.234L73.96 119.647L74.547 122.409L71.7852 122.996L71.1982 120.234ZM73.96 119.647L76.7218 119.06L77.3089 121.821L74.547 122.409L73.96 119.647ZM76.7218 119.06L79.4837 118.473L80.0707 121.234L77.3089 121.821L76.7218 119.06ZM79.4837 118.473L82.2455 117.886L82.8325 120.647L80.0707 121.234L79.4837 118.473ZM82.2455 117.886L85.0073 117.299L85.5944 120.06L82.8325 120.647L82.2455 117.886ZM85.0073 117.299L87.7691 116.711L88.3562 119.473L85.5944 120.06L85.0073 117.299ZM84.4203 114.537L87.1821 113.95L87.7691 116.711L85.0073 117.299L84.4203 114.537ZM81.6584 115.124L84.4203 114.537L85.0073 117.299L82.2455 117.886L81.6584 115.124ZM76.1348 116.298L78.8966 115.711L79.4837 118.473L76.7218 119.06L76.1348 116.298ZM73.373 116.885L76.1348 116.298L76.7218 119.06L73.96 119.647L73.373 116.885ZM70.6111 117.472L73.373 116.885L73.96 119.647L71.1982 120.234L70.6111 117.472ZM67.8493 118.059L70.6111 117.472L71.1982 120.234L68.4363 120.821L67.8493 118.059ZM65.0875 118.646L67.8493 118.059L68.4363 120.821L65.6745 121.408L65.0875 118.646ZM62.3256 119.233L65.0875 118.646L65.6745 121.408L62.9127 121.995L62.3256 119.233ZM59.5638 119.82L62.3256 119.233L62.9127 121.995L60.1509 122.582L59.5638 119.82ZM78.8966 115.711L81.6584 115.124L82.2455 117.886L79.4837 118.473L78.8966 115.711Z" fill="black"/>
</svg>
