<svg width="1200" height="400" viewBox="0 0 1200 400" fill="none" xmlns="http://www.w3.org/2000/svg">
<rect width="1200" height="400" fill="transparent"/>
<path d="M94 180.5C94 180.5 97.5 214.5 136 214.5C174.5 214.5 179.5 180.5 179.5 180.5" stroke="black" stroke-width="12" stroke-linecap="round"/>
<path d="M223 180C223 180 226.5 214 265 214C303.5 214 308.5 180 308.5 180" stroke="black" stroke-width="12" stroke-linecap="round"/>
<path d="M159 253C159 253 173 266 200.5 266C228 266 240.5 253 240.5 253" stroke="black" stroke-width="24" stroke-linecap="round"/>
<path d="M64.7102 140.008L66.5284 139.521L67.0156 141.339L65.1973 141.826L64.7102 140.008ZM66.5284 139.521L68.3466 139.033L68.8338 140.852L67.0156 141.339L66.5284 139.521ZM68.3466 139.033L70.1648 138.546L70.652 140.364L68.8338 140.852L68.3466 139.033ZM70.1648 138.546L71.983 138.059L72.4702 139.877L70.652 140.364L70.1648 138.546ZM71.983 138.059L73.8012 137.572L74.2884 139.39L72.4702 139.877L71.983 138.059ZM73.8012 137.572L75.6194 137.085L76.1066 138.903L74.2884 139.39L73.8012 137.572ZM75.6194 137.085L77.4376 136.597L77.9248 138.416L76.1066 138.903L75.6194 137.085ZM77.4376 136.597L79.2559 136.11L79.743 137.928L77.9248 138.416L77.4376 136.597ZM79.2559 136.11L81.0741 135.623L81.5613 137.441L79.743 137.928L79.2559 136.11ZM81.0741 135.623L82.8923 135.136L83.3795 136.954L81.5613 137.441L81.0741 135.623ZM82.8923 135.136L84.7105 134.649L85.1977 136.467L83.3795 136.954L82.8923 135.136ZM83.3795 136.954L85.1977 136.467L85.6849 138.285L83.8667 138.772L83.3795 136.954ZM84.7105 134.649L86.5287 134.161L87.0159 135.98L85.1977 136.467L84.7105 134.649ZM85.1977 136.467L87.0159 135.98L87.5031 137.798L85.6849 138.285L85.1977 136.467ZM85.6849 138.285L87.5031 137.798L87.9903 139.616L86.1721 140.103L85.6849 138.285ZM86.1721 140.103L87.9903 139.616L88.4775 141.434L86.6593 141.921L86.1721 140.103ZM84.3539 140.59L86.1721 140.103L86.6593 141.921L84.841 142.409L84.3539 140.59ZM82.5356 141.078L84.3539 140.59L84.841 142.409L83.0228 142.896L82.5356 141.078ZM80.7174 141.565L82.5356 141.078L83.0228 142.896L81.2046 143.383L80.7174 141.565ZM78.8992 142.052L80.7174 141.565L81.2046 143.383L79.3864 143.87L78.8992 142.052ZM77.081 142.539L78.8992 142.052L79.3864 143.87L77.5682 144.357L77.081 142.539ZM75.2628 143.026L77.081 142.539L77.5682 144.357L75.75 144.845L75.2628 143.026ZM73.4446 143.514L75.2628 143.026L75.75 144.845L73.9318 145.332L73.4446 143.514ZM71.6264 144.001L73.4446 143.514L73.9318 145.332L72.1135 145.819L71.6264 144.001ZM69.8081 144.488L71.6264 144.001L72.1135 145.819L70.2953 146.306L69.8081 144.488ZM67.9899 144.975L69.8081 144.488L70.2953 146.306L68.4771 146.793L67.9899 144.975ZM66.1717 145.462L67.9899 144.975L68.4771 146.793L66.6589 147.281L66.1717 145.462ZM65.6845 143.644L67.5027 143.157L67.9899 144.975L66.1717 145.462L65.6845 143.644ZM65.1973 141.826L67.0156 141.339L67.5027 143.157L65.6845 143.644L65.1973 141.826ZM67.0156 141.339L68.8338 140.852L69.321 142.67L67.5027 143.157L67.0156 141.339ZM68.8338 140.852L70.652 140.364L71.1392 142.183L69.321 142.67L68.8338 140.852ZM70.652 140.364L72.4702 139.877L72.9574 141.695L71.1392 142.183L70.652 140.364ZM72.4702 139.877L74.2884 139.39L74.7756 141.208L72.9574 141.695L72.4702 139.877ZM74.2884 139.39L76.1066 138.903L76.5938 140.721L74.7756 141.208L74.2884 139.39ZM76.1066 138.903L77.9248 138.416L78.412 140.234L76.5938 140.721L76.1066 138.903ZM77.9248 138.416L79.743 137.928L80.2302 139.747L78.412 140.234L77.9248 138.416ZM80.2302 139.747L82.0484 139.259L82.5356 141.078L80.7174 141.565L80.2302 139.747ZM82.0484 139.259L83.8667 138.772L84.3539 140.59L82.5356 141.078L82.0484 139.259ZM83.8667 138.772L85.6849 138.285L86.1721 140.103L84.3539 140.59L83.8667 138.772ZM81.5613 137.441L83.3795 136.954L83.8667 138.772L82.0484 139.259L81.5613 137.441ZM79.743 137.928L81.5613 137.441L82.0484 139.259L80.2302 139.747L79.743 137.928ZM76.5938 140.721L78.412 140.234L78.8992 142.052L77.081 142.539L76.5938 140.721ZM74.7756 141.208L76.5938 140.721L77.081 142.539L75.2628 143.026L74.7756 141.208ZM72.9574 141.695L74.7756 141.208L75.2628 143.026L73.4446 143.514L72.9574 141.695ZM71.1392 142.183L72.9574 141.695L73.4446 143.514L71.6264 144.001L71.1392 142.183ZM69.321 142.67L71.1392 142.183L71.6264 144.001L69.8081 144.488L69.321 142.67ZM67.5027 143.157L69.321 142.67L69.8081 144.488L67.9899 144.975L67.5027 143.157ZM78.412 140.234L80.2302 139.747L80.7174 141.565L78.8992 142.052L78.412 140.234ZM84.841 142.409L86.6593 141.921L87.1464 143.74L85.3282 144.227L84.841 142.409ZM83.0228 142.896L84.841 142.409L85.3282 144.227L83.51 144.714L83.0228 142.896ZM81.2046 143.383L83.0228 142.896L83.51 144.714L81.6918 145.201L81.2046 143.383ZM79.3864 143.87L81.2046 143.383L81.6918 145.201L79.8736 145.688L79.3864 143.87ZM79.8736 145.688L81.6918 145.201L82.179 147.019L80.3608 147.507L79.8736 145.688ZM78.0554 146.176L79.8736 145.688L80.3608 147.507L78.5426 147.994L78.0554 146.176ZM81.6918 145.201L83.51 144.714L83.9972 146.532L82.179 147.019L81.6918 145.201ZM83.51 144.714L85.3282 144.227L85.8154 146.045L83.9972 146.532L83.51 144.714ZM82.179 147.019L83.9972 146.532L84.4844 148.35L82.6662 148.838L82.179 147.019ZM80.3608 147.507L82.179 147.019L82.6662 148.838L80.848 149.325L80.3608 147.507ZM78.5426 147.994L80.3608 147.507L80.848 149.325L79.0298 149.812L78.5426 147.994ZM76.7244 148.481L78.5426 147.994L79.0298 149.812L77.2115 150.299L76.7244 148.481ZM75.3933 150.786L77.2115 150.299L77.6987 152.117L75.8805 152.605L75.3933 150.786ZM77.2115 150.299L79.0298 149.812L79.5169 151.63L77.6987 152.117L77.2115 150.299ZM79.0298 149.812L80.848 149.325L81.3352 151.143L79.5169 151.63L79.0298 149.812ZM80.848 149.325L82.6662 148.838L83.1534 150.656L81.3352 151.143L80.848 149.325ZM71.4003 157.703L73.2185 157.215L73.7057 159.034L71.8874 159.521L71.4003 157.703ZM73.2185 157.215L75.0367 156.728L75.5239 158.546L73.7057 159.034L73.2185 157.215ZM75.0367 156.728L76.8549 156.241L77.3421 158.059L75.5239 158.546L75.0367 156.728ZM76.8549 156.241L78.6731 155.754L79.1603 157.572L77.3421 158.059L76.8549 156.241ZM76.3677 154.423L78.1859 153.936L78.6731 155.754L76.8549 156.241L76.3677 154.423ZM78.1859 153.936L80.0041 153.448L80.4913 155.267L78.6731 155.754L78.1859 153.936ZM77.6987 152.117L79.5169 151.63L80.0041 153.448L78.1859 153.936L77.6987 152.117ZM79.5169 151.63L81.3352 151.143L81.8223 152.961L80.0041 153.448L79.5169 151.63ZM75.8805 152.605L77.6987 152.117L78.1859 153.936L76.3677 154.423L75.8805 152.605ZM74.0623 153.092L75.8805 152.605L76.3677 154.423L74.5495 154.91L74.0623 153.092ZM74.5495 154.91L76.3677 154.423L76.8549 156.241L75.0367 156.728L74.5495 154.91ZM72.7313 155.397L74.5495 154.91L75.0367 156.728L73.2185 157.215L72.7313 155.397ZM70.0692 160.008L71.8874 159.521L72.3746 161.339L70.5564 161.826L70.0692 160.008ZM71.8874 159.521L73.7057 159.034L74.1928 160.852L72.3746 161.339L71.8874 159.521ZM73.7057 159.034L75.5239 158.546L76.0111 160.365L74.1928 160.852L73.7057 159.034ZM75.5239 158.546L77.3421 158.059L77.8293 159.877L76.0111 160.365L75.5239 158.546ZM77.3421 158.059L79.1603 157.572L79.6475 159.39L77.8293 159.877L77.3421 158.059ZM79.1603 157.572L80.9785 157.085L81.4657 158.903L79.6475 159.39L79.1603 157.572ZM80.9785 157.085L82.7967 156.598L83.2839 158.416L81.4657 158.903L80.9785 157.085ZM82.7967 156.598L84.6149 156.111L85.1021 157.929L83.2839 158.416L82.7967 156.598ZM84.6149 156.111L86.4331 155.623L86.9203 157.442L85.1021 157.929L84.6149 156.111ZM86.4331 155.623L88.2514 155.136L88.7385 156.954L86.9203 157.442L86.4331 155.623ZM88.2514 155.136L90.0696 154.649L90.5568 156.467L88.7385 156.954L88.2514 155.136ZM90.0696 154.649L91.8878 154.162L92.375 155.98L90.5568 156.467L90.0696 154.649ZM90.5568 156.467L92.375 155.98L92.8622 157.798L91.044 158.285L90.5568 156.467ZM91.044 158.285L92.8622 157.798L93.3494 159.616L91.5311 160.104L91.044 158.285ZM91.5311 160.104L93.3494 159.616L93.8365 161.435L92.0183 161.922L91.5311 160.104ZM89.7129 160.591L91.5311 160.104L92.0183 161.922L90.2001 162.409L89.7129 160.591ZM87.8947 161.078L89.7129 160.591L90.2001 162.409L88.3819 162.896L87.8947 161.078ZM86.0765 161.565L87.8947 161.078L88.3819 162.896L86.5637 163.383L86.0765 161.565ZM84.2583 162.052L86.0765 161.565L86.5637 163.383L84.7455 163.871L84.2583 162.052ZM82.4401 162.54L84.2583 162.052L84.7455 163.871L82.9273 164.358L82.4401 162.54ZM80.6219 163.027L82.4401 162.54L82.9273 164.358L81.1091 164.845L80.6219 163.027ZM78.8036 163.514L80.6219 163.027L81.1091 164.845L79.2908 165.332L78.8036 163.514ZM76.9854 164.001L78.8036 163.514L79.2908 165.332L77.4726 165.819L76.9854 164.001ZM75.1672 164.488L76.9854 164.001L77.4726 165.819L75.6544 166.307L75.1672 164.488ZM73.349 164.975L75.1672 164.488L75.6544 166.307L73.8362 166.794L73.349 164.975ZM72.8618 163.157L74.68 162.67L75.1672 164.488L73.349 164.975L72.8618 163.157ZM71.0436 163.644L72.8618 163.157L73.349 164.975L71.5308 165.463L71.0436 163.644ZM70.5564 161.826L72.3746 161.339L72.8618 163.157L71.0436 163.644L70.5564 161.826ZM71.5308 165.463L73.349 164.975L73.8362 166.794L72.018 167.281L71.5308 165.463ZM74.68 162.67L76.4982 162.183L76.9854 164.001L75.1672 164.488L74.68 162.67ZM76.4982 162.183L78.3165 161.696L78.8036 163.514L76.9854 164.001L76.4982 162.183ZM78.3165 161.696L80.1347 161.209L80.6219 163.027L78.8036 163.514L78.3165 161.696ZM80.1347 161.209L81.9529 160.721L82.4401 162.54L80.6219 163.027L80.1347 161.209ZM81.9529 160.721L83.7711 160.234L84.2583 162.052L82.4401 162.54L81.9529 160.721ZM83.7711 160.234L85.5893 159.747L86.0765 161.565L84.2583 162.052L83.7711 160.234ZM85.5893 159.747L87.4075 159.26L87.8947 161.078L86.0765 161.565L85.5893 159.747ZM87.4075 159.26L89.2257 158.773L89.7129 160.591L87.8947 161.078L87.4075 159.26ZM89.2257 158.773L91.044 158.285L91.5311 160.104L89.7129 160.591L89.2257 158.773ZM88.7385 156.954L90.5568 156.467L91.044 158.285L89.2257 158.773L88.7385 156.954ZM86.9203 157.442L88.7385 156.954L89.2257 158.773L87.4075 159.26L86.9203 157.442ZM83.2839 158.416L85.1021 157.929L85.5893 159.747L83.7711 160.234L83.2839 158.416ZM81.4657 158.903L83.2839 158.416L83.7711 160.234L81.9529 160.721L81.4657 158.903ZM79.6475 159.39L81.4657 158.903L81.9529 160.721L80.1347 161.209L79.6475 159.39ZM77.8293 159.877L79.6475 159.39L80.1347 161.209L78.3165 161.696L77.8293 159.877ZM76.0111 160.365L77.8293 159.877L78.3165 161.696L76.4982 162.183L76.0111 160.365ZM74.1928 160.852L76.0111 160.365L76.4982 162.183L74.68 162.67L74.1928 160.852ZM72.3746 161.339L74.1928 160.852L74.68 162.67L72.8618 163.157L72.3746 161.339ZM85.1021 157.929L86.9203 157.442L87.4075 159.26L85.5893 159.747L85.1021 157.929Z" fill="black"/>
<path d="M49.7574 87.2652L52.5193 86.6781L53.1063 89.44L50.3445 90.027L49.7574 87.2652ZM52.5193 86.6781L55.2811 86.0911L55.8681 88.8529L53.1063 89.44L52.5193 86.6781ZM55.2811 86.0911L58.0429 85.504L58.63 88.2659L55.8681 88.8529L55.2811 86.0911ZM58.0429 85.504L60.8048 84.917L61.3918 87.6788L58.63 88.2659L58.0429 85.504ZM60.8048 84.917L63.5666 84.33L64.1536 87.0918L61.3918 87.6788L60.8048 84.917ZM63.5666 84.33L66.3284 83.7429L66.9155 86.5047L64.1536 87.0918L63.5666 84.33ZM66.3284 83.7429L69.0902 83.1559L69.6773 85.9177L66.9155 86.5047L66.3284 83.7429ZM69.0902 83.1559L71.8521 82.5688L72.4391 85.3306L69.6773 85.9177L69.0902 83.1559ZM71.8521 82.5688L74.6139 81.9818L75.2009 84.7436L72.4391 85.3306L71.8521 82.5688ZM74.6139 81.9818L77.3757 81.3947L77.9628 84.1566L75.2009 84.7436L74.6139 81.9818ZM77.3757 81.3947L80.1376 80.8077L80.7246 83.5695L77.9628 84.1566L77.3757 81.3947ZM77.9628 84.1566L80.7246 83.5695L81.3116 86.3313L78.5498 86.9184L77.9628 84.1566ZM80.1376 80.8077L82.8994 80.2206L83.4864 82.9825L80.7246 83.5695L80.1376 80.8077ZM80.7246 83.5695L83.4864 82.9825L84.0735 85.7443L81.3116 86.3313L80.7246 83.5695ZM81.3116 86.3313L84.0735 85.7443L84.6605 88.5061L81.8987 89.0932L81.3116 86.3313ZM81.8987 89.0932L84.6605 88.5061L85.2476 91.268L82.4857 91.855L81.8987 89.0932ZM79.1369 89.6802L81.8987 89.0932L82.4857 91.855L79.7239 92.442L79.1369 89.6802ZM76.375 90.2673L79.1369 89.6802L79.7239 92.442L76.9621 93.0291L76.375 90.2673ZM73.6132 90.8543L76.375 90.2673L76.9621 93.0291L74.2003 93.6161L73.6132 90.8543ZM70.8514 91.4414L73.6132 90.8543L74.2003 93.6161L71.4384 94.2032L70.8514 91.4414ZM68.0896 92.0284L70.8514 91.4414L71.4384 94.2032L68.6766 94.7902L68.0896 92.0284ZM65.3277 92.6154L68.0896 92.0284L68.6766 94.7902L65.9148 95.3773L65.3277 92.6154ZM62.5659 93.2025L65.3277 92.6154L65.9148 95.3773L63.1529 95.9643L62.5659 93.2025ZM59.8041 93.7895L62.5659 93.2025L63.1529 95.9643L60.3911 96.5514L59.8041 93.7895ZM57.0422 94.3766L59.8041 93.7895L60.3911 96.5514L57.6293 97.1384L57.0422 94.3766ZM54.2804 94.9636L57.0422 94.3766L57.6293 97.1384L54.8675 97.7254L54.2804 94.9636ZM51.5186 95.5507L54.2804 94.9636L54.8675 97.7254L52.1056 98.3125L51.5186 95.5507ZM50.9315 92.7888L53.6934 92.2018L54.2804 94.9636L51.5186 95.5507L50.9315 92.7888ZM50.3445 90.027L53.1063 89.44L53.6934 92.2018L50.9315 92.7888L50.3445 90.027ZM53.1063 89.44L55.8681 88.8529L56.4552 91.6147L53.6934 92.2018L53.1063 89.44ZM55.8681 88.8529L58.63 88.2659L59.217 91.0277L56.4552 91.6147L55.8681 88.8529ZM58.63 88.2659L61.3918 87.6788L61.9788 90.4407L59.217 91.0277L58.63 88.2659ZM61.3918 87.6788L64.1536 87.0918L64.7407 89.8536L61.9788 90.4407L61.3918 87.6788ZM64.1536 87.0918L66.9155 86.5047L67.5025 89.2666L64.7407 89.8536L64.1536 87.0918ZM66.9155 86.5047L69.6773 85.9177L70.2643 88.6795L67.5025 89.2666L66.9155 86.5047ZM69.6773 85.9177L72.4391 85.3306L73.0262 88.0925L70.2643 88.6795L69.6773 85.9177ZM73.0262 88.0925L75.788 87.5054L76.375 90.2673L73.6132 90.8543L73.0262 88.0925ZM75.788 87.5054L78.5498 86.9184L79.1369 89.6802L76.375 90.2673L75.788 87.5054ZM78.5498 86.9184L81.3116 86.3313L81.8987 89.0932L79.1369 89.6802L78.5498 86.9184ZM75.2009 84.7436L77.9628 84.1566L78.5498 86.9184L75.788 87.5054L75.2009 84.7436ZM72.4391 85.3306L75.2009 84.7436L75.788 87.5054L73.0262 88.0925L72.4391 85.3306ZM67.5025 89.2666L70.2643 88.6795L70.8514 91.4414L68.0896 92.0284L67.5025 89.2666ZM64.7407 89.8536L67.5025 89.2666L68.0896 92.0284L65.3277 92.6154L64.7407 89.8536ZM61.9788 90.4407L64.7407 89.8536L65.3277 92.6154L62.5659 93.2025L61.9788 90.4407ZM59.217 91.0277L61.9788 90.4407L62.5659 93.2025L59.8041 93.7895L59.217 91.0277ZM56.4552 91.6147L59.217 91.0277L59.8041 93.7895L57.0422 94.3766L56.4552 91.6147ZM53.6934 92.2018L56.4552 91.6147L57.0422 94.3766L54.2804 94.9636L53.6934 92.2018ZM70.2643 88.6795L73.0262 88.0925L73.6132 90.8543L70.8514 91.4414L70.2643 88.6795ZM79.7239 92.442L82.4857 91.855L83.0728 94.6168L80.311 95.2039L79.7239 92.442ZM76.9621 93.0291L79.7239 92.442L80.311 95.2039L77.5491 95.7909L76.9621 93.0291ZM74.2003 93.6161L76.9621 93.0291L77.5491 95.7909L74.7873 96.378L74.2003 93.6161ZM71.4384 94.2032L74.2003 93.6161L74.7873 96.378L72.0255 96.965L71.4384 94.2032ZM72.0255 96.965L74.7873 96.378L75.3743 99.1398L72.6125 99.7268L72.0255 96.965ZM69.2636 97.5521L72.0255 96.965L72.6125 99.7268L69.8507 100.314L69.2636 97.5521ZM74.7873 96.378L77.5491 95.7909L78.1362 98.5527L75.3743 99.1398L74.7873 96.378ZM77.5491 95.7909L80.311 95.2039L80.898 97.9657L78.1362 98.5527L77.5491 95.7909ZM75.3743 99.1398L78.1362 98.5527L78.7232 101.315L75.9614 101.902L75.3743 99.1398ZM72.6125 99.7268L75.3743 99.1398L75.9614 101.902L73.1996 102.489L72.6125 99.7268ZM69.8507 100.314L72.6125 99.7268L73.1996 102.489L70.4377 103.076L69.8507 100.314ZM67.0889 100.901L69.8507 100.314L70.4377 103.076L67.6759 103.663L67.0889 100.901ZM64.9141 104.25L67.6759 103.663L68.2629 106.425L65.5011 107.012L64.9141 104.25ZM67.6759 103.663L70.4377 103.076L71.0248 105.838L68.2629 106.425L67.6759 103.663ZM70.4377 103.076L73.1996 102.489L73.7866 105.25L71.0248 105.838L70.4377 103.076ZM73.1996 102.489L75.9614 101.902L76.5484 104.663L73.7866 105.25L73.1996 102.489ZM58.3897 114.296L61.1515 113.709L61.7386 116.471L58.9768 117.058L58.3897 114.296ZM61.1515 113.709L63.9134 113.122L64.5004 115.884L61.7386 116.471L61.1515 113.709ZM63.9134 113.122L66.6752 112.535L67.2623 115.297L64.5004 115.884L63.9134 113.122ZM66.6752 112.535L69.437 111.948L70.0241 114.71L67.2623 115.297L66.6752 112.535ZM66.0882 109.773L68.85 109.186L69.437 111.948L66.6752 112.535L66.0882 109.773ZM68.85 109.186L71.6118 108.599L72.1989 111.361L69.437 111.948L68.85 109.186ZM68.2629 106.425L71.0248 105.838L71.6118 108.599L68.85 109.186L68.2629 106.425ZM71.0248 105.838L73.7866 105.25L74.3736 108.012L71.6118 108.599L71.0248 105.838ZM65.5011 107.012L68.2629 106.425L68.85 109.186L66.0882 109.773L65.5011 107.012ZM62.7393 107.599L65.5011 107.012L66.0882 109.773L63.3263 110.36L62.7393 107.599ZM63.3263 110.36L66.0882 109.773L66.6752 112.535L63.9134 113.122L63.3263 110.36ZM60.5645 110.948L63.3263 110.36L63.9134 113.122L61.1515 113.709L60.5645 110.948ZM56.2149 117.645L58.9768 117.058L59.5638 119.82L56.802 120.407L56.2149 117.645ZM58.9768 117.058L61.7386 116.471L62.3256 119.233L59.5638 119.82L58.9768 117.058ZM61.7386 116.471L64.5004 115.884L65.0875 118.646L62.3256 119.233L61.7386 116.471ZM64.5004 115.884L67.2623 115.297L67.8493 118.059L65.0875 118.646L64.5004 115.884ZM67.2623 115.297L70.0241 114.71L70.6111 117.472L67.8493 118.059L67.2623 115.297ZM70.0241 114.71L72.7859 114.123L73.373 116.885L70.6111 117.472L70.0241 114.71ZM72.7859 114.123L75.5477 113.536L76.1348 116.298L73.373 116.885L72.7859 114.123ZM75.5477 113.536L78.3096 112.949L78.8966 115.711L76.1348 116.298L75.5477 113.536ZM78.3096 112.949L81.0714 112.362L81.6584 115.124L78.8966 115.711L78.3096 112.949ZM81.0714 112.362L83.8332 111.775L84.4203 114.537L81.6584 115.124L81.0714 112.362ZM83.8332 111.775L86.5951 111.188L87.1821 113.95L84.4203 114.537L83.8332 111.775ZM86.5951 111.188L89.3569 110.601L89.9439 113.363L87.1821 113.95L86.5951 111.188ZM87.1821 113.95L89.9439 113.363L90.531 116.124L87.7691 116.711L87.1821 113.95ZM87.7691 116.711L90.531 116.124L91.118 118.886L88.3562 119.473L87.7691 116.711ZM88.3562 119.473L91.118 118.886L91.7051 121.648L88.9432 122.235L88.3562 119.473ZM85.5944 120.06L88.3562 119.473L88.9432 122.235L86.1814 122.822L85.5944 120.06ZM82.8325 120.647L85.5944 120.06L86.1814 122.822L83.4196 123.409L82.8325 120.647ZM80.0707 121.234L82.8325 120.647L83.4196 123.409L80.6577 123.996L80.0707 121.234ZM77.3089 121.821L80.0707 121.234L80.6577 123.996L77.8959 124.583L77.3089 121.821ZM74.547 122.409L77.3089 121.821L77.8959 124.583L75.1341 125.17L74.547 122.409ZM71.7852 122.996L74.547 122.409L75.1341 125.17L72.3723 125.757L71.7852 122.996ZM69.0234 123.583L71.7852 122.996L72.3723 125.757L69.6104 126.344L69.0234 123.583ZM66.2616 124.17L69.0234 123.583L69.6104 126.344L66.8486 126.931L66.2616 124.17ZM63.4997 124.757L66.2616 124.17L66.8486 126.931L64.0868 127.519L63.4997 124.757ZM60.7379 125.344L63.4997 124.757L64.0868 127.519L61.3249 128.106L60.7379 125.344ZM60.1509 122.582L62.9127 121.995L63.4997 124.757L60.7379 125.344L60.1509 122.582ZM57.389 123.169L60.1509 122.582L60.7379 125.344L57.9761 125.931L57.389 123.169ZM56.802 120.407L59.5638 119.82L60.1509 122.582L57.389 123.169L56.802 120.407ZM57.9761 125.931L60.7379 125.344L61.3249 128.106L58.5631 128.693L57.9761 125.931ZM62.9127 121.995L65.6745 121.408L66.2616 124.17L63.4997 124.757L62.9127 121.995ZM65.6745 121.408L68.4363 120.821L69.0234 123.583L66.2616 124.17L65.6745 121.408ZM68.4363 120.821L71.1982 120.234L71.7852 122.996L69.0234 123.583L68.4363 120.821ZM71.1982 120.234L73.96 119.647L74.547 122.409L71.7852 122.996L71.1982 120.234ZM73.96 119.647L76.7218 119.06L77.3089 121.821L74.547 122.409L73.96 119.647ZM76.7218 119.06L79.4837 118.473L80.0707 121.234L77.3089 121.821L76.7218 119.06ZM79.4837 118.473L82.2455 117.886L82.8325 120.647L80.0707 121.234L79.4837 118.473ZM82.2455 117.886L85.0073 117.299L85.5944 120.06L82.8325 120.647L82.2455 117.886ZM85.0073 117.299L87.7691 116.711L88.3562 119.473L85.5944 120.06L85.0073 117.299ZM84.4203 114.537L87.1821 113.95L87.7691 116.711L85.0073 117.299L84.4203 114.537ZM81.6584 115.124L84.4203 114.537L85.0073 117.299L82.2455 117.886L81.6584 115.124ZM76.1348 116.298L78.8966 115.711L79.4837 118.473L76.7218 119.06L76.1348 116.298ZM73.373 116.885L76.1348 116.298L76.7218 119.06L73.96 119.647L73.373 116.885ZM70.6111 117.472L73.373 116.885L73.96 119.647L71.1982 120.234L70.6111 117.472ZM67.8493 118.059L70.6111 117.472L71.1982 120.234L68.4363 120.821L67.8493 118.059ZM65.0875 118.646L67.8493 118.059L68.4363 120.821L65.6745 121.408L65.0875 118.646ZM62.3256 119.233L65.0875 118.646L65.6745 121.408L62.9127 121.995L62.3256 119.233ZM59.5638 119.82L62.3256 119.233L62.9127 121.995L60.1509 122.582L59.5638 119.82ZM78.8966 115.711L81.6584 115.124L82.2455 117.886L79.4837 118.473L78.8966 115.711Z" fill="black"/>
<path d="M379.136 243.408C375.893 243.408 373.12 243.024 370.816 242.256C368.597 241.573 366.848 240.933 365.568 240.336C364.203 239.653 363.349 239.312 363.008 239.312C362.667 239.312 362.368 239.483 362.112 239.824C361.941 240.08 361.728 240.805 361.472 242H358.528L359.04 233.552L359.424 222.672H362.24L362.368 224.848C362.539 227.237 363.307 229.627 364.672 232.016C366.123 234.405 368.085 236.411 370.56 238.032C373.035 239.653 375.893 240.464 379.136 240.464C382.635 240.464 385.451 239.568 387.584 237.776C389.717 235.984 390.784 233.509 390.784 230.352C390.784 227.621 389.675 225.317 387.456 223.44C385.323 221.563 382.336 219.899 378.496 218.448L373.888 216.656C369.451 214.949 366.08 212.816 363.776 210.256C361.557 207.696 360.448 204.411 360.448 200.4C360.448 196.987 361.216 194.085 362.752 191.696C364.373 189.221 366.464 187.301 369.024 185.936C371.669 184.571 374.485 183.888 377.472 183.888C379.605 183.888 381.397 184.144 382.848 184.656C384.384 185.168 385.664 185.68 386.688 186.192C387.541 186.619 388.267 186.832 388.864 186.832C389.717 186.832 390.4 185.936 390.912 184.144L393.728 184.272L393.216 192.592V201.552H390.272C389.675 197.541 388.309 194.085 386.176 191.184C384.043 188.197 380.971 186.704 376.96 186.704C374.144 186.704 371.755 187.6 369.792 189.392C367.915 191.184 366.976 193.445 366.976 196.176C366.976 198.821 367.957 201.04 369.92 202.832C371.968 204.539 374.741 206.075 378.24 207.44L383.232 209.36C388.437 211.323 392.021 213.712 393.984 216.528C396.032 219.259 397.056 222.544 397.056 226.384C397.056 230.907 395.52 234.875 392.448 238.288C389.376 241.701 384.939 243.408 379.136 243.408ZM445.514 243.408C439.967 243.408 435.573 242.043 432.33 239.312C429.173 236.496 427.594 232.357 427.594 226.896V202.064C427.594 198.224 427.338 195.493 426.826 193.872C426.314 192.165 425.375 191.056 424.01 190.544C422.73 190.032 420.853 189.648 418.378 189.392L416.33 189.136V186.192L432.074 186.576L436.554 186.448V226.384C436.554 230.565 437.621 233.765 439.754 235.984C441.887 238.203 444.789 239.312 448.458 239.312C451.615 239.312 454.389 238.629 456.778 237.264C459.253 235.813 461.343 233.979 463.05 231.76C464.842 229.541 466.25 227.28 467.274 224.976V202.064C467.274 198.224 467.018 195.493 466.506 193.872C465.994 192.165 465.055 191.056 463.69 190.544C462.41 190.032 460.533 189.648 458.058 189.392L456.01 189.136V186.192L471.754 186.576L476.234 186.448V227.792C476.234 231.035 476.618 233.467 477.386 235.088C478.239 236.624 479.434 237.648 480.97 238.16C482.591 238.672 484.554 238.928 486.858 238.928V241.872C483.359 241.872 480.159 241.915 477.258 242C474.357 242.085 471.029 242.469 467.274 243.152V231.376C466.421 232.741 465.525 233.936 464.586 234.96C462.367 237.435 459.679 239.483 456.522 241.104C453.365 242.64 449.695 243.408 445.514 243.408ZM503.339 279.632C500.438 279.632 498.262 278.907 496.811 277.456C495.36 276.091 494.635 274.555 494.635 272.848C494.635 271.141 495.275 269.691 496.555 268.496C497.75 267.387 499.286 266.832 501.163 266.832C502.358 266.832 503.296 267.003 503.979 267.344C504.662 267.771 505.302 268.197 505.899 268.624C506.496 269.051 507.179 269.477 507.947 269.904C508.715 270.416 509.611 270.672 510.635 270.672C512.171 270.672 513.75 270.075 515.371 268.88C517.078 267.685 518.827 265.211 520.619 261.456L529.067 243.28L507.819 196.688C506.966 194.725 506.027 193.104 505.003 191.824C503.979 190.544 502.4 189.776 500.267 189.52L497.323 189.136V186.192L510.635 186.576L523.563 186.192V189.136L521.771 189.392C518.187 189.904 516.395 191.227 516.395 193.36C516.395 194.384 516.864 195.92 517.803 197.968L533.803 233.04L549.803 198.608C550.742 196.475 551.211 194.811 551.211 193.616C551.211 191.312 549.12 189.904 544.939 189.392L542.891 189.136V186.192L555.179 186.576L565.419 186.192V189.136L563.499 189.392C560.342 189.819 558.038 190.971 556.587 192.848C555.222 194.725 553.942 197.029 552.747 199.76L523.819 262.864C522.454 265.765 520.832 268.496 518.955 271.056C517.163 273.616 514.987 275.664 512.427 277.2C509.952 278.821 506.923 279.632 503.339 279.632ZM595.008 243.408C590.912 243.408 587.499 242.384 584.768 240.336C582.123 238.203 580.8 235.259 580.8 231.504C580.8 227.749 582.464 224.421 585.792 221.52C589.12 218.533 593.003 215.845 597.44 213.456C600.768 211.579 604.096 209.957 607.424 208.592C610.752 207.227 613.611 206.075 616 205.136V201.04C616 196.347 615.104 192.848 613.312 190.544C611.605 188.24 608.32 187.088 603.456 187.088C601.152 187.088 598.891 187.387 596.672 187.984C594.453 188.581 593.344 189.691 593.344 191.312C593.344 191.653 593.387 192.037 593.472 192.464C593.643 192.891 593.771 193.317 593.856 193.744C594.283 194.853 594.496 196.005 594.496 197.2C594.496 198.821 593.899 200.101 592.704 201.04C591.595 201.893 590.229 202.32 588.608 202.32C587.072 202.32 585.792 201.765 584.768 200.656C583.744 199.461 583.232 198.053 583.232 196.432C583.232 193.36 584.384 190.928 586.688 189.136C589.077 187.259 591.979 185.936 595.392 185.168C598.805 184.315 602.091 183.888 605.248 183.888C612.075 183.888 617.067 185.467 620.224 188.624C623.381 191.781 624.96 196.944 624.96 204.112V227.152C624.96 230.907 625.216 233.808 625.728 235.856C626.325 237.904 627.605 238.928 629.568 238.928C630.848 238.928 631.957 238.459 632.896 237.52C633.835 236.581 634.475 235.557 634.816 234.448L637.12 235.344C636.437 237.819 635.2 239.781 633.408 241.232C631.701 242.683 629.312 243.408 626.24 243.408C622.485 243.408 619.883 242.341 618.432 240.208C617.067 237.989 616.299 235.088 616.128 231.504C613.739 235.344 610.709 238.288 607.04 240.336C603.371 242.384 599.36 243.408 595.008 243.408ZM590.784 230.864C590.784 233.253 591.467 235.173 592.832 236.624C594.283 237.989 596.373 238.672 599.104 238.672C601.579 238.672 603.925 238.075 606.144 236.88C608.448 235.685 610.453 234.192 612.16 232.4C613.867 230.523 615.147 228.517 616 226.384V207.696C613.184 208.891 610.283 210.299 607.296 211.92C604.395 213.456 601.664 215.205 599.104 217.168C596.629 219.131 594.624 221.264 593.088 223.568C591.552 225.787 590.784 228.219 590.784 230.864ZM677.086 243.408C673.843 243.408 671.07 243.024 668.766 242.256C666.547 241.573 664.798 240.933 663.518 240.336C662.153 239.653 661.299 239.312 660.958 239.312C660.617 239.312 660.318 239.483 660.062 239.824C659.891 240.08 659.678 240.805 659.422 242H656.478L656.99 233.552L657.374 222.672H660.19L660.318 224.848C660.489 227.237 661.257 229.627 662.622 232.016C664.073 234.405 666.035 236.411 668.51 238.032C670.985 239.653 673.843 240.464 677.086 240.464C680.585 240.464 683.401 239.568 685.534 237.776C687.667 235.984 688.734 233.509 688.734 230.352C688.734 227.621 687.625 225.317 685.406 223.44C683.273 221.563 680.286 219.899 676.446 218.448L671.838 216.656C667.401 214.949 664.03 212.816 661.726 210.256C659.507 207.696 658.398 204.411 658.398 200.4C658.398 196.987 659.166 194.085 660.702 191.696C662.323 189.221 664.414 187.301 666.974 185.936C669.619 184.571 672.435 183.888 675.422 183.888C677.555 183.888 679.347 184.144 680.798 184.656C682.334 185.168 683.614 185.68 684.638 186.192C685.491 186.619 686.217 186.832 686.814 186.832C687.667 186.832 688.35 185.936 688.862 184.144L691.678 184.272L691.166 192.592V201.552H688.222C687.625 197.541 686.259 194.085 684.126 191.184C681.993 188.197 678.921 186.704 674.91 186.704C672.094 186.704 669.705 187.6 667.742 189.392C665.865 191.184 664.926 193.445 664.926 196.176C664.926 198.821 665.907 201.04 667.87 202.832C669.918 204.539 672.691 206.075 676.19 207.44L681.182 209.36C686.387 211.323 689.971 213.712 691.934 216.528C693.982 219.259 695.006 222.544 695.006 226.384C695.006 230.907 693.47 234.875 690.398 238.288C687.326 241.701 682.889 243.408 677.086 243.408ZM743.464 243.408C737.917 243.408 733.523 242.043 730.28 239.312C727.123 236.496 725.544 232.357 725.544 226.896V202.064C725.544 198.224 725.288 195.493 724.776 193.872C724.264 192.165 723.325 191.056 721.96 190.544C720.68 190.032 718.803 189.648 716.328 189.392L714.28 189.136V186.192L730.024 186.576L734.504 186.448V226.384C734.504 230.565 735.571 233.765 737.704 235.984C739.837 238.203 742.739 239.312 746.408 239.312C749.565 239.312 752.339 238.629 754.728 237.264C757.203 235.813 759.293 233.979 761 231.76C762.792 229.541 764.2 227.28 765.224 224.976V202.064C765.224 198.224 764.968 195.493 764.456 193.872C763.944 192.165 763.005 191.056 761.64 190.544C760.36 190.032 758.483 189.648 756.008 189.392L753.96 189.136V186.192L769.704 186.576L774.184 186.448V227.792C774.184 231.035 774.568 233.467 775.336 235.088C776.189 236.624 777.384 237.648 778.92 238.16C780.541 238.672 782.504 238.928 784.808 238.928V241.872C781.309 241.872 778.109 241.915 775.208 242C772.307 242.085 768.979 242.469 765.224 243.152V231.376C764.371 232.741 763.475 233.936 762.536 234.96C760.317 237.435 757.629 239.483 754.472 241.104C751.315 242.64 747.645 243.408 743.464 243.408ZM801.289 279.632C798.388 279.632 796.212 278.907 794.761 277.456C793.31 276.091 792.585 274.555 792.585 272.848C792.585 271.141 793.225 269.691 794.505 268.496C795.7 267.387 797.236 266.832 799.113 266.832C800.308 266.832 801.246 267.003 801.929 267.344C802.612 267.771 803.252 268.197 803.849 268.624C804.446 269.051 805.129 269.477 805.897 269.904C806.665 270.416 807.561 270.672 808.585 270.672C810.121 270.672 811.7 270.075 813.321 268.88C815.028 267.685 816.777 265.211 818.569 261.456L827.017 243.28L805.769 196.688C804.916 194.725 803.977 193.104 802.953 191.824C801.929 190.544 800.35 189.776 798.217 189.52L795.273 189.136V186.192L808.585 186.576L821.513 186.192V189.136L819.721 189.392C816.137 189.904 814.345 191.227 814.345 193.36C814.345 194.384 814.814 195.92 815.753 197.968L831.753 233.04L847.753 198.608C848.692 196.475 849.161 194.811 849.161 193.616C849.161 191.312 847.07 189.904 842.889 189.392L840.841 189.136V186.192L853.129 186.576L863.369 186.192V189.136L861.449 189.392C858.292 189.819 855.988 190.971 854.537 192.848C853.172 194.725 851.892 197.029 850.697 199.76L821.769 262.864C820.404 265.765 818.782 268.496 816.905 271.056C815.113 273.616 812.937 275.664 810.377 277.2C807.902 278.821 804.873 279.632 801.289 279.632ZM892.958 243.408C888.862 243.408 885.449 242.384 882.718 240.336C880.073 238.203 878.75 235.259 878.75 231.504C878.75 227.749 880.414 224.421 883.742 221.52C887.07 218.533 890.953 215.845 895.39 213.456C898.718 211.579 902.046 209.957 905.374 208.592C908.702 207.227 911.561 206.075 913.95 205.136V201.04C913.95 196.347 913.054 192.848 911.262 190.544C909.555 188.24 906.27 187.088 901.406 187.088C899.102 187.088 896.841 187.387 894.622 187.984C892.403 188.581 891.294 189.691 891.294 191.312C891.294 191.653 891.337 192.037 891.422 192.464C891.593 192.891 891.721 193.317 891.806 193.744C892.233 194.853 892.446 196.005 892.446 197.2C892.446 198.821 891.849 200.101 890.654 201.04C889.545 201.893 888.179 202.32 886.558 202.32C885.022 202.32 883.742 201.765 882.718 200.656C881.694 199.461 881.182 198.053 881.182 196.432C881.182 193.36 882.334 190.928 884.638 189.136C887.027 187.259 889.929 185.936 893.342 185.168C896.755 184.315 900.041 183.888 903.198 183.888C910.025 183.888 915.017 185.467 918.174 188.624C921.331 191.781 922.91 196.944 922.91 204.112V227.152C922.91 230.907 923.166 233.808 923.678 235.856C924.275 237.904 925.555 238.928 927.518 238.928C928.798 238.928 929.907 238.459 930.846 237.52C931.785 236.581 932.425 235.557 932.766 234.448L935.07 235.344C934.387 237.819 933.15 239.781 931.358 241.232C929.651 242.683 927.262 243.408 924.19 243.408C920.435 243.408 917.833 242.341 916.382 240.208C915.017 237.989 914.249 235.088 914.078 231.504C911.689 235.344 908.659 238.288 904.99 240.336C901.321 242.384 897.31 243.408 892.958 243.408ZM888.734 230.864C888.734 233.253 889.417 235.173 890.782 236.624C892.233 237.989 894.323 238.672 897.054 238.672C899.529 238.672 901.875 238.075 904.094 236.88C906.398 235.685 908.403 234.192 910.11 232.4C911.817 230.523 913.097 228.517 913.95 226.384V207.696C911.134 208.891 908.233 210.299 905.246 211.92C902.345 213.456 899.614 215.205 897.054 217.168C894.579 219.131 892.574 221.264 891.038 223.568C889.502 225.787 888.734 228.219 888.734 230.864ZM974.268 242.384V239.184L977.084 238.928C980.583 238.587 983.228 238.16 985.02 237.648C986.897 237.051 988.177 235.856 988.86 234.064C989.628 232.187 990.012 229.157 990.012 224.976V154.576H971.964C968.039 154.576 964.924 155.344 962.62 156.88C960.401 158.331 958.439 160.72 956.732 164.048C955.111 167.376 953.191 171.813 950.972 177.36L948.284 176.72L951.484 160.976L952.892 150.736L989.372 151.12H1001.53L1038.14 150.736L1039.55 160.976L1042.75 176.72L1039.93 177.488C1037.97 172.539 1036.13 168.357 1034.43 164.944C1032.81 161.531 1030.89 158.971 1028.67 157.264C1026.45 155.472 1023.51 154.576 1019.84 154.576H1000.89V224.976C1000.89 229.157 1001.23 232.187 1001.92 234.064C1002.68 235.856 1004.01 237.051 1005.88 237.648C1007.76 238.16 1010.41 238.587 1013.82 238.928L1016.64 239.184V242.384L995.772 242L974.268 242.384ZM1081.26 242.384V239.184L1083.82 238.928C1086.81 238.587 1089.07 238.16 1090.61 237.648C1092.23 237.051 1093.34 235.856 1093.94 234.064C1094.53 232.187 1094.83 229.157 1094.83 224.976V205.264L1072.43 166.096C1070.47 162.597 1068.51 159.995 1066.54 158.288C1064.58 156.581 1061.85 155.387 1058.35 154.704L1054.64 153.936V150.736L1074.1 151.12L1093.3 150.736V153.936L1089.2 154.32C1087.07 154.491 1085.36 155.003 1084.08 155.856C1082.8 156.709 1082.16 157.989 1082.16 159.696C1082.16 161.659 1083.1 164.261 1084.98 167.504L1103.66 200.016L1122.22 167.504C1124.1 164.091 1125.04 161.445 1125.04 159.568C1125.04 157.776 1124.36 156.496 1122.99 155.728C1121.63 154.96 1119.88 154.491 1117.74 154.32L1114.03 153.936V150.736L1130.93 151.376L1144.5 150.736V153.936L1141.04 154.576C1138.31 155.088 1136.05 156.069 1134.26 157.52C1132.55 158.971 1130.8 161.275 1129.01 164.432L1105.71 205.136V224.976C1105.71 229.157 1106.01 232.187 1106.61 234.064C1107.21 235.856 1108.31 237.051 1109.94 237.648C1111.56 238.16 1113.82 238.587 1116.72 238.928L1119.28 239.184V242.384L1100.34 242H1100.21L1081.26 242.384Z" fill="black"/>
</svg>
